<svg width="411" height="595" viewBox="0 0 411 595" fill="none" xmlns="http://www.w3.org/2000/svg">
<g filter="url(#filter0_d_2_53)">
<g clip-path="url(#clip0_2_53)">
<path d="M18 5H393V564H18V5Z" fill="white"/>
<rect x="18" y="5" width="375" height="559" fill="#052CC0"/>
<mask id="mask0_2_53" style="mask-type:alpha" maskUnits="userSpaceOnUse" x="18" y="5" width="375" height="559">
<rect x="18" y="5" width="375" height="559" fill="#052CC0"/>
</mask>
<g mask="url(#mask0_2_53)">
<g filter="url(#filter1_f_2_53)">
<path d="M166.659 -390.132C164.651 -468.239 236.066 -384.886 326.169 -203.956C416.271 -23.0265 490.942 186.965 492.949 265.072C494.957 343.18 250.895 -0.932182 160.792 -181.862C70.6893 -362.791 168.666 -312.024 166.659 -390.132Z" fill="#20E4FF"/>
</g>
<g filter="url(#filter2_f_2_53)">
<path d="M132.582 455.824C192.77 350.956 248.358 521.956 256.741 837.763C265.125 1153.57 192.769 552.632 132.581 657.5C72.3929 762.368 -38.9305 1041.69 -47.3141 725.878C-55.6976 410.071 72.3938 560.691 132.582 455.824Z" fill="#060F8F"/>
</g>
<g filter="url(#filter3_f_2_53)">
<path d="M-62.2282 690.282C-86.548 900.409 -182.096 841.938 -202.061 690.281C-222.025 538.623 -343.882 670.462 -319.562 460.335C-295.242 250.207 124.474 155.177 144.439 306.834C164.404 458.492 -37.9084 480.154 -62.2282 690.282Z" fill="#21FFBE"/>
</g>
</g>
<g filter="url(#filter4_f_2_53)">
<path d="M385.754 173.244C392.123 44.3221 529.254 85.7441 529.254 120.244C584.396 299.032 495.274 544.259 488.905 673.181C482.536 802.103 318.2 564.019 263.058 385.231C207.916 206.442 379.385 302.166 385.754 173.244Z" fill="#FF43CA"/>
</g>
</g>
</g>
<defs>
<filter id="filter0_d_2_53" x="0" y="0" width="411" height="595" filterUnits="userSpaceOnUse" color-interpolation-filters="sRGB">
<feFlood flood-opacity="0" result="BackgroundImageFix"/>
<feColorMatrix in="SourceAlpha" type="matrix" values="0 0 0 0 0 0 0 0 0 0 0 0 0 0 0 0 0 0 127 0" result="hardAlpha"/>
<feOffset dy="13"/>
<feGaussianBlur stdDeviation="9"/>
<feComposite in2="hardAlpha" operator="out"/>
<feColorMatrix type="matrix" values="0 0 0 0 0 0 0 0 0 0 0 0 0 0 0 0 0 0 0.25 0"/>
<feBlend mode="normal" in2="BackgroundImageFix" result="effect1_dropShadow_2_53"/>
<feBlend mode="normal" in="SourceGraphic" in2="effect1_dropShadow_2_53" result="shape"/>
</filter>
<filter id="filter1_f_2_53" x="-27.3724" y="-569.446" width="670.334" height="995.87" filterUnits="userSpaceOnUse" color-interpolation-filters="sRGB">
<feFlood flood-opacity="0" result="BackgroundImageFix"/>
<feBlend mode="normal" in="SourceGraphic" in2="BackgroundImageFix" result="shape"/>
<feGaussianBlur stdDeviation="75" result="effect1_foregroundBlur_2_53"/>
</filter>
<filter id="filter2_f_2_53" x="-101.553" y="371.112" width="412.807" height="613.204" filterUnits="userSpaceOnUse" color-interpolation-filters="sRGB">
<feFlood flood-opacity="0" result="BackgroundImageFix"/>
<feBlend mode="normal" in="SourceGraphic" in2="BackgroundImageFix" result="shape"/>
<feGaussianBlur stdDeviation="26.9233" result="effect1_foregroundBlur_2_53"/>
</filter>
<filter id="filter3_f_2_53" x="-472.757" y="82.52" width="768.579" height="894.305" filterUnits="userSpaceOnUse" color-interpolation-filters="sRGB">
<feFlood flood-opacity="0" result="BackgroundImageFix"/>
<feBlend mode="normal" in="SourceGraphic" in2="BackgroundImageFix" result="shape"/>
<feGaussianBlur stdDeviation="75" result="effect1_foregroundBlur_2_53"/>
</filter>
<filter id="filter4_f_2_53" x="102.147" y="-64.6171" width="595.027" height="924.523" filterUnits="userSpaceOnUse" color-interpolation-filters="sRGB">
<feFlood flood-opacity="0" result="BackgroundImageFix"/>
<feBlend mode="normal" in="SourceGraphic" in2="BackgroundImageFix" result="shape"/>
<feGaussianBlur stdDeviation="75" result="effect1_foregroundBlur_2_53"/>
</filter>
<clipPath id="clip0_2_53">
<path d="M18 5H393V564H18V5Z" fill="white"/>
</clipPath>
</defs>
</svg>
