<svg width="37" height="50" viewBox="0 0 37 50" fill="none" xmlns="http://www.w3.org/2000/svg">
<path fill-rule="evenodd" clip-rule="evenodd" d="M16.3864 4.33236C19.3048 4.3324 24.0027 4.99832 28.2745 9.52672C32.3646 13.8626 32.3396 19.493 32.3363 20.2382L32.3361 20.2827H36.6694L36.6698 20.2223C36.6763 19.3156 36.7277 12.1727 31.4266 6.55322C26.0655 0.870041 20.036 -0.000916873 16.3865 -0.000976562L16.3864 4.33236ZM25.8739 49.8327C29.3167 49.8327 32.1076 47.0418 32.1076 43.599L32.1076 24.7299H27.7743L27.7743 43.599C27.7743 44.6485 26.9235 45.4993 25.8739 45.4993H6.90165C5.85212 45.4993 5.0013 44.6485 5.0013 43.599L5.0013 10.2438C5.0013 9.19425 5.85212 8.34344 6.90165 8.34344H12.0314L12.0314 4.0101L6.90166 4.0101C3.45888 4.0101 0.667972 6.80102 0.667972 10.2438L0.667969 43.599C0.667969 47.0418 3.45888 49.8327 6.90165 49.8327L25.8739 49.8327ZM23.3411 14.0117C20.8341 11.3541 18.1016 10.9698 16.3864 10.9697L16.3865 6.63639C18.8327 6.63643 22.8969 7.22583 26.4932 11.0382C28.3509 13.0075 29.2274 15.2401 29.6429 16.9837C29.8516 17.8593 29.9486 18.6294 29.9935 19.211C30.0161 19.5027 30.0256 19.7483 30.0295 19.9374C30.0314 20.0319 30.0318 20.1114 30.0318 20.1736L30.0316 20.2504L30.0314 20.2741L30.0314 20.2807L30.0314 20.2818H25.6981L25.6981 20.2571C25.6997 19.816 25.7113 16.5243 23.3411 14.0117ZM16.3864 18.5765C16.5692 18.5765 16.7733 18.5981 16.9817 18.6716C17.1777 18.7408 17.4232 18.8712 17.6882 19.1522C17.871 19.346 17.9801 19.5904 18.0399 19.8413C18.0945 20.0704 18.0925 20.2346 18.0921 20.2755L18.092 20.2822H22.4253C22.4253 20.2987 22.426 20.218 22.4244 20.1369C22.4226 20.0497 22.4183 19.9394 22.4083 19.8103C22.3885 19.5539 22.3461 19.2182 22.2552 18.8367C22.0751 18.0814 21.687 17.0762 20.8404 16.1786C19.2662 14.5099 17.4539 14.2432 16.3865 14.2432L16.3864 18.5765Z" fill="url(#paint0_linear_2459_21884)"/>
<defs>
<linearGradient id="paint0_linear_2459_21884" x1="37.8367" y1="38.7407" x2="-3.39737" y2="35.307" gradientUnits="userSpaceOnUse">
<stop stop-color="#01E2A0"/>
<stop offset="1" stop-color="#052CC0"/>
</linearGradient>
</defs>
</svg>
