<svg xmlns="http://www.w3.org/2000/svg" width="44" height="44" viewBox="0 0 44 44" fill="none">
<path d="M5.49972 36.6668L38.4997 36.6668C40.5164 36.6668 42.1664 35.0168 42.1664 33.0001L42.1664 25.6668L38.4997 25.6668L38.4997 33.0001L5.49972 33.0001L5.49972 14.6668L12.8331 14.6668L12.8331 11.0001L5.49972 11.0001C3.48305 11.0001 1.83306 12.6501 1.83306 14.6668L1.83305 33.0001C1.83305 35.0168 3.48305 36.6668 5.49972 36.6668Z" fill="#8A8FA4"/>
<mask id="path-2-inside-1_1028_3786" fill="white">
<path d="M40.0278 22.3055L33.6111 22.3055L33.6111 18.0277L30.745 18.0277C29.5258 20.6157 26.895 22.3055 23.9861 22.3055C19.8581 22.3055 16.5 18.9474 16.5 14.8194C16.5 10.6913 19.8581 7.33325 23.9861 7.33325C26.895 7.33325 29.5151 9.02297 30.745 11.611L42.1667 11.611L42.1667 18.0277L40.0278 18.0277L40.0278 22.3055ZM35.75 20.1666L37.8889 20.1666L37.8889 15.8888L40.0278 15.8888L40.0278 13.7499L29.2692 13.7499L29.0232 13.0334C28.2746 10.9052 26.2426 9.47214 23.9861 9.47214C21.0344 9.47214 18.6389 11.8677 18.6389 14.8194C18.6389 17.771 21.0344 20.1666 23.9861 20.1666C26.2426 20.1666 28.2746 18.7335 29.0232 16.6053L29.2692 15.8888L35.75 15.8888L35.75 20.1666ZM23.9861 18.0277C22.2215 18.0277 20.7778 16.5839 20.7778 14.8194C20.7778 13.0548 22.2215 11.611 23.9861 11.611C25.7507 11.611 27.1944 13.0548 27.1944 14.8194C27.1944 16.5839 25.7507 18.0277 23.9861 18.0277ZM23.9861 13.7499C23.3979 13.7499 22.9167 14.2312 22.9167 14.8194C22.9167 15.4076 23.3979 15.8888 23.9861 15.8888C24.5743 15.8888 25.0556 15.4076 25.0556 14.8194C25.0556 14.2312 24.5743 13.7499 23.9861 13.7499Z"/>
</mask>
<path d="M40.0278 22.3055L33.6111 22.3055L33.6111 18.0277L30.745 18.0277C29.5258 20.6157 26.895 22.3055 23.9861 22.3055C19.8581 22.3055 16.5 18.9474 16.5 14.8194C16.5 10.6913 19.8581 7.33325 23.9861 7.33325C26.895 7.33325 29.5151 9.02297 30.745 11.611L42.1667 11.611L42.1667 18.0277L40.0278 18.0277L40.0278 22.3055ZM35.75 20.1666L37.8889 20.1666L37.8889 15.8888L40.0278 15.8888L40.0278 13.7499L29.2692 13.7499L29.0232 13.0334C28.2746 10.9052 26.2426 9.47214 23.9861 9.47214C21.0344 9.47214 18.6389 11.8677 18.6389 14.8194C18.6389 17.771 21.0344 20.1666 23.9861 20.1666C26.2426 20.1666 28.2746 18.7335 29.0232 16.6053L29.2692 15.8888L35.75 15.8888L35.75 20.1666ZM23.9861 18.0277C22.2215 18.0277 20.7778 16.5839 20.7778 14.8194C20.7778 13.0548 22.2215 11.611 23.9861 11.611C25.7507 11.611 27.1944 13.0548 27.1944 14.8194C27.1944 16.5839 25.7507 18.0277 23.9861 18.0277ZM23.9861 13.7499C23.3979 13.7499 22.9167 14.2312 22.9167 14.8194C22.9167 15.4076 23.3979 15.8888 23.9861 15.8888C24.5743 15.8888 25.0556 15.4076 25.0556 14.8194C25.0556 14.2312 24.5743 13.7499 23.9861 13.7499Z" fill="#8A8FA4"/>
<path d="M40.0278 22.3055L40.0278 25.5491L43.2714 25.5491L43.2714 22.3055L40.0278 22.3055ZM33.6111 22.3055L30.3675 22.3055L30.3675 25.5491L33.6111 25.5491L33.6111 22.3055ZM33.6111 18.0277L36.8547 18.0277L36.8547 14.7841L33.6111 14.7841L33.6111 18.0277ZM30.745 18.0277L30.745 14.7841L28.6875 14.7841L27.8107 16.6454L30.745 18.0277ZM30.745 11.611L27.8154 13.0032L28.6952 14.8546L30.745 14.8546L30.745 11.611ZM42.1667 11.611L45.4103 11.611L45.4103 8.36744L42.1667 8.36744L42.1667 11.611ZM42.1667 18.0277L42.1667 21.2713L45.4103 21.2713L45.4103 18.0277L42.1667 18.0277ZM40.0278 18.0277L40.0278 14.7841L36.7842 14.7841L36.7842 18.0277L40.0278 18.0277ZM35.75 20.1666L32.5064 20.1666L32.5064 23.4102L35.75 23.4102L35.75 20.1666ZM37.8889 20.1666L37.8889 23.4102L41.1325 23.4102L41.1325 20.1666L37.8889 20.1666ZM37.8889 15.8888L37.8889 12.6452L34.6453 12.6452L34.6453 15.8888L37.8889 15.8888ZM40.0278 15.8888L40.0278 19.1324L43.2714 19.1324L43.2714 15.8888L40.0278 15.8888ZM40.0278 13.7499L43.2714 13.7499L43.2714 10.5063L40.0278 10.5063L40.0278 13.7499ZM29.2692 13.7499L26.2013 14.8031L26.9532 16.9935L29.2692 16.9935L29.2692 13.7499ZM29.0232 13.0334L32.0911 11.9802L32.0871 11.9686L32.083 11.9571L29.0232 13.0334ZM29.0232 16.6053L32.083 17.6816L32.0871 17.6701L32.0911 17.6585L29.0232 16.6053ZM29.2692 15.8888L29.2692 12.6452L26.9532 12.6452L26.2013 14.8357L29.2692 15.8888ZM35.75 15.8888L38.9936 15.8888L38.9936 12.6452L35.75 12.6452L35.75 15.8888ZM40.0278 19.0619L33.6111 19.0619L33.6111 25.5491L40.0278 25.5491L40.0278 19.0619ZM36.8547 22.3055L36.8547 18.0277L30.3675 18.0277L30.3675 22.3055L36.8547 22.3055ZM33.6111 14.7841L30.745 14.7841L30.745 21.2713L33.6111 21.2713L33.6111 14.7841ZM27.8107 16.6454C27.1249 18.1012 25.6346 19.0619 23.9861 19.0619L23.9861 25.5491C28.1554 25.5491 31.9268 23.1302 33.6793 19.41L27.8107 16.6454ZM23.9861 19.0619C21.6494 19.0619 19.7436 17.156 19.7436 14.8194L13.2564 14.8194C13.2564 20.7388 18.0667 25.5491 23.9861 25.5491L23.9861 19.0619ZM19.7436 14.8194C19.7436 12.4827 21.6494 10.5768 23.9861 10.5768L23.9861 4.08966C18.0667 4.08966 13.2564 8.89992 13.2564 14.8194L19.7436 14.8194ZM23.9861 10.5768C25.6273 10.5768 27.1161 11.5318 27.8154 13.0032L33.6746 10.2189C31.9141 6.51417 28.1627 4.08966 23.9861 4.08966L23.9861 10.5768ZM30.745 14.8546L42.1667 14.8546L42.1667 8.36744L30.745 8.36744L30.745 14.8546ZM38.9231 11.611L38.9231 18.0277L45.4103 18.0277L45.4103 11.611L38.9231 11.611ZM42.1667 14.7841L40.0278 14.7841L40.0278 21.2713L42.1667 21.2713L42.1667 14.7841ZM36.7842 18.0277L36.7842 22.3055L43.2714 22.3055L43.2714 18.0277L36.7842 18.0277ZM35.75 23.4102L37.8889 23.4102L37.8889 16.923L35.75 16.923L35.75 23.4102ZM41.1325 20.1666L41.1325 15.8888L34.6453 15.8888L34.6453 20.1666L41.1325 20.1666ZM37.8889 19.1324L40.0278 19.1324L40.0278 12.6452L37.8889 12.6452L37.8889 19.1324ZM43.2714 15.8888L43.2714 13.7499L36.7842 13.7499L36.7842 15.8888L43.2714 15.8888ZM40.0278 10.5063L29.2692 10.5063L29.2692 16.9935L40.0278 16.9935L40.0278 10.5063ZM32.337 12.6968L32.0911 11.9802L25.9553 14.0865L26.2013 14.8031L32.337 12.6968ZM32.083 11.9571C30.8755 8.5244 27.6128 6.22855 23.9861 6.22855L23.9861 12.7157C24.8725 12.7157 25.6736 13.286 25.9634 14.1097L32.083 11.9571ZM23.9861 6.22855C19.2431 6.22855 15.3953 10.0763 15.3953 14.8194L21.8825 14.8194C21.8825 13.6591 22.8258 12.7157 23.9861 12.7157L23.9861 6.22855ZM15.3953 14.8194C15.3953 19.5624 19.2431 23.4102 23.9861 23.4102L23.9861 16.923C22.8258 16.923 21.8825 15.9796 21.8825 14.8194L15.3953 14.8194ZM23.9861 23.4102C27.6128 23.4102 30.8755 21.1143 32.083 17.6816L25.9634 15.529C25.6736 16.3527 24.8725 16.923 23.9861 16.923L23.9861 23.4102ZM32.0911 17.6585L32.337 16.9419L26.2013 14.8357L25.9553 15.5522L32.0911 17.6585ZM29.2692 19.1324L35.75 19.1324L35.75 12.6452L29.2692 12.6452L29.2692 19.1324ZM32.5064 15.8888L32.5064 20.1666L38.9936 20.1666L38.9936 15.8888L32.5064 15.8888ZM23.9861 14.7841C23.9872 14.7841 23.9909 14.7843 23.9961 14.7853C24.0011 14.7864 24.0054 14.7878 24.0087 14.7892C24.0146 14.7917 24.0153 14.7932 24.0138 14.7917C24.0122 14.7901 24.0138 14.7909 24.0163 14.7968C24.0177 14.8001 24.0191 14.8044 24.0201 14.8094C24.0212 14.8145 24.0214 14.8182 24.0214 14.8194L17.5342 14.8194C17.5342 18.3753 20.4301 21.2713 23.9861 21.2713L23.9861 14.7841ZM24.0214 14.8194C24.0214 14.8205 24.0212 14.8242 24.0201 14.8294C24.0191 14.8343 24.0177 14.8386 24.0163 14.8419C24.0138 14.8478 24.0122 14.8486 24.0138 14.847C24.0153 14.8455 24.0146 14.847 24.0087 14.8495C24.0054 14.8509 24.0011 14.8524 23.9961 14.8534C23.9909 14.8544 23.9872 14.8546 23.9861 14.8546L23.9861 8.36744C20.4301 8.36744 17.5342 11.2634 17.5342 14.8194L24.0214 14.8194ZM23.9861 14.8546C23.985 14.8546 23.9813 14.8544 23.9761 14.8534C23.9712 14.8524 23.9668 14.8509 23.9636 14.8495C23.9576 14.847 23.9569 14.8455 23.9584 14.847C23.96 14.8486 23.9585 14.8478 23.9559 14.8419C23.9545 14.8386 23.9531 14.8343 23.9521 14.8294C23.951 14.8242 23.9509 14.8205 23.9509 14.8194L30.438 14.8194C30.438 11.2634 27.5421 8.36744 23.9861 8.36744L23.9861 14.8546ZM23.9509 14.8194C23.9509 14.8182 23.951 14.8145 23.9521 14.8094C23.9531 14.8044 23.9545 14.8001 23.9559 14.7968C23.9585 14.7909 23.96 14.7901 23.9584 14.7917C23.9569 14.7932 23.9576 14.7917 23.9636 14.7892C23.9668 14.7878 23.9712 14.7864 23.9761 14.7853C23.9813 14.7843 23.985 14.7841 23.9861 14.7841L23.9861 21.2713C27.5421 21.2713 30.438 18.3753 30.438 14.8194L23.9509 14.8194ZM23.9861 10.5063C21.6065 10.5063 19.6731 12.4398 19.6731 14.8194L26.1603 14.8194C26.1603 16.0226 25.1893 16.9935 23.9861 16.9935L23.9861 10.5063ZM19.6731 14.8194C19.6731 17.1989 21.6065 19.1324 23.9861 19.1324L23.9861 12.6452C25.1893 12.6452 26.1603 13.6162 26.1603 14.8194L19.6731 14.8194ZM23.9861 19.1324C26.3657 19.1324 28.2991 17.1989 28.2991 14.8194L21.812 14.8194C21.812 13.6162 22.7829 12.6452 23.9861 12.6452L23.9861 19.1324ZM28.2991 14.8194C28.2991 12.4398 26.3657 10.5063 23.9861 10.5063L23.9861 16.9935C22.7829 16.9935 21.812 16.0226 21.812 14.8194L28.2991 14.8194Z" fill="#8A8FA4" mask="url(#path-2-inside-1_1028_3786)"/>
</svg>